<svg xmlns="http://www.w3.org/2000/svg" viewBox="0 0 800 600" width="100%" height="100%">
    <defs>
        <filter id="ink-bloom" x="-20%" y="-20%" width="140%" height="140%">
            <feGaussianBlur in="SourceGraphic" stdDeviation="1.5" result="blur" />
            <feTurbulence type="fractalNoise" baseFrequency="0.04" numOctaves="3" result="noise" />
            <feColorMatrix type="matrix" values="1 0 0 0 0  0 1 0 0 0  0 0 1 0 0  0 0 0 0.35 0" in="noise" result="coloredNoise" />
            <feDisplacementMap in="blur" in2="coloredNoise" scale="3" xChannelSelector="R" yChannelSelector="G" result="displaced" />
            <feBlend mode="screen" in="SourceGraphic" in2="displaced" />
        </filter>

        <filter id="ink-bleed" x="-10%" y="-10%" width="120%" height="120%">
            <feTurbulence type="fractalNoise" baseFrequency="0.6" numOctaves="2" result="noise" />
            <feDisplacementMap in="SourceGraphic" in2="noise" scale="1.5" xChannelSelector="R" yChannelSelector="G" />
        </filter>

        <filter id="glow" x="-50%" y="-50%" width="200%" height="200%">
            <feGaussianBlur in="SourceGraphic" stdDeviation="4" result="blur" />
            <feBlend mode="screen" in="SourceGraphic" in2="blur" />
        </filter>

        <linearGradient id="beam1-grad" x1="0%" y1="0%" x2="100%" y2="100%">
            <stop offset="0%" stop-color="#F96BD6" stop-opacity="0.35"/>
            <stop offset="40%" stop-color="#AD72FF" stop-opacity="0.25"/>
            <stop offset="70%" stop-color="#3C90FF" stop-opacity="0.4"/>
            <stop offset="100%" stop-color="#00BDD2" stop-opacity="0.1"/>
        </linearGradient>

        <linearGradient id="beam1-core" x1="0%" y1="0%" x2="100%" y2="100%">
            <stop offset="0%" stop-color="#FF9238" stop-opacity="0.5"/>
            <stop offset="50%" stop-color="#F96BD6" stop-opacity="0.5"/>
            <stop offset="100%" stop-color="#FF5A59" stop-opacity="0.2"/>
        </linearGradient>

        <linearGradient id="beam2-grad" x1="0%" y1="100%" x2="100%" y2="0%">
            <stop offset="0%" stop-color="#00BDD2" stop-opacity="0.35"/>
            <stop offset="40%" stop-color="#60D673" stop-opacity="0.25"/>
            <stop offset="70%" stop-color="#88DE42" stop-opacity="0.4"/>
            <stop offset="100%" stop-color="#FFCF03" stop-opacity="0.1"/>
        </linearGradient>

        <linearGradient id="beam2-core" x1="0%" y1="100%" x2="100%" y2="0%">
            <stop offset="0%" stop-color="#4FA0FF" stop-opacity="0.5"/>
            <stop offset="50%" stop-color="#60D673" stop-opacity="0.5"/>
            <stop offset="100%" stop-color="#FFCF03" stop-opacity="0.2"/>
        </linearGradient>

        <radialGradient id="eye-glow" cx="50%" cy="50%" r="50%">
            <stop offset="0%" stop-color="#FFCF03" stop-opacity="0.25"/>
            <stop offset="30%" stop-color="#FF5A59" stop-opacity="0.15"/>
            <stop offset="100%" stop-color="#FF5A59" stop-opacity="0"/>
        </radialGradient>
        
        <radialGradient id="crossing-glow" cx="50%" cy="50%" r="50%">
            <stop offset="0%" stop-color="#AD72FF" stop-opacity="0.2"/>
            <stop offset="100%" stop-color="#AD72FF" stop-opacity="0"/>
        </radialGradient>
    </defs>

    <g id="construction-lines" stroke="#1F1F1F" stroke-width="0.5" fill="none" opacity="0.15" filter="url(#ink-bleed)">
        <line x1="423" y1="380" x2="650" y2="568" stroke-dasharray="2 4" />
        <line x1="428" y1="190" x2="650" y2="-9" stroke-dasharray="2 4" />
        <line x1="475" y1="340" x2="305" y2="384" stroke-dasharray="1 3" />
        <line x1="479" y1="230" x2="305" y2="183" stroke-dasharray="1 3" />
        
        <circle cx="650" cy="300" r="25" />
        <circle cx="650" cy="300" r="40" opacity="0.6" />
        <circle cx="650" cy="300" r="80" stroke-dasharray="1 4" opacity="0.4" />
        
        <circle cx="305" cy="300" r="60" stroke-dasharray="2 6" />
        <circle cx="450" cy="300" r="140" stroke-dasharray="1 8" />
        
        <path d="M280 250 A 55 55 0 0 0 280 350" />
        <path d="M260 220 A 90 90 0 0 0 260 380" stroke-dasharray="2 3" />
        
        <line x1="20" y1="20" x2="780" y2="580" opacity="0.05" />
        <line x1="20" y1="580" x2="780" y2="20" opacity="0.05" />
    </g>

    <g id="beams" filter="url(#ink-bloom)">
        <circle cx="305" cy="300" r="35" fill="url(#crossing-glow)" />

        <polygon points="50,70 423,380 475,340 650,295 750,240 750,270 650,305 479,370 428,410 50,130" fill="url(#beam1-grad)" />
        <polygon points="50,530 428,190 479,230 650,295 750,330 750,360 650,305 475,260 423,220 50,470" fill="url(#beam2-grad)" />
        
        <polygon points="50,90 424,390 476,350 650,299 750,250 750,260 650,301 478,360 427,400 50,110" fill="url(#beam1-core)" />
        <polygon points="50,510 427,200 478,240 650,299 750,340 750,350 650,301 476,250 424,210 50,490" fill="url(#beam2-core)" />
    </g>

    <g id="focal-glows">
        <ellipse cx="660" cy="300" rx="50" ry="80" fill="url(#eye-glow)" filter="url(#ink-bloom)" />
        <circle cx="650" cy="300" r="4" fill="#FFCF03" filter="url(#glow)" opacity="0.8" />
        <circle cx="305" cy="300" r="3" fill="#60D673" filter="url(#glow)" opacity="0.7" />
        <circle cx="450" cy="300" r="2" fill="#3C90FF" filter="url(#glow)" opacity="0.5" />
    </g>

    <g id="specular-reflections" stroke-width="1.5" fill="none" opacity="0.6" filter="url(#glow)">
        <path d="M 430 240 Q 390 300 430 360" stroke="#00BDD2" />
        <path d="M 470 210 Q 515 300 470 390" stroke="#F96BD6" />
        <path d="M 643 270 Q 618 300 643 330" stroke="#FFCF03" stroke-width="1" />
    </g>

    <g id="primary-linework" stroke="#1F1F1F" fill="none" opacity="0.35" filter="url(#ink-bleed)">
        <line x1="20" y1="300" x2="780" y2="300" stroke-width="1.2" stroke-dasharray="15 6 3 6" />
        <line x1="450" y1="80" x2="450" y2="520" stroke-width="0.8" stroke-dasharray="6 4" />
        <line x1="650" y1="120" x2="650" y2="480" stroke-width="0.8" stroke-dasharray="6 4" />
        <line x1="305" y1="200" x2="305" y2="400" stroke-width="0.6" stroke-dasharray="2 3" />

        <path d="M 450 100 Q 380 300 450 500" stroke-width="1.5" />
        <path d="M 450 100 Q 520 300 450 500" stroke-width="1.5" />

        <path d="M 640 200 Q 600 300 640 400" stroke-width="1.5" />
        <path d="M 650 215 Q 630 300 650 385" stroke-width="0.8" stroke-dasharray="4 3" />
        <path d="M 660 230 Q 640 300 660 370 Q 680 300 660 230" stroke-width="1" />
        <path d="M 720 120 Q 800 300 720 480" stroke-width="2" />

        <rect x="30" y="60" width="10" height="80" rx="2" stroke-width="1.5" />
        <rect x="30" y="460" width="10" height="80" rx="2" stroke-width="1.5" />
        <path d="M 40 70 L 50 70 M 40 130 L 50 130 M 40 470 L 50 470 M 40 530 L 50 530" stroke-width="1" />
        
        <circle cx="650" cy="300" r="10" stroke-width="0.8" />
        <line x1="635" y1="300" x2="665" y2="300" stroke-width="0.8" />
        <line x1="650" y1="285" x2="650" y2="315" stroke-width="0.8" />
        
        <circle cx="305" cy="300" r="15" stroke-width="0.8" stroke-dasharray="2 2" />

        <path d="M50 560 L 750 560" stroke-width="1" />
        <path d="M50 560v-10 M100 560v-5 M150 560v-10 M200 560v-5 M250 560v-10 M300 560v-5 M350 560v-10 M400 560v-5 M450 560v-10 M500 560v-5 M550 560v-10 M600 560v-5 M650 560v-10 M700 560v-5 M750 560v-10" stroke-width="1" />
        
        <polyline points="305,530 305,535 450,535 450,530" stroke-width="0.8" />
        <polyline points="450,530 450,535 650,535 650,530" stroke-width="0.8" />
        <polyline points="50,530 50,535 305,535 305,530" stroke-width="0.8" />
    </g>
</svg>